<svg width="16" height="17" viewBox="0 0 16 17" fill="none" xmlns="http://www.w3.org/2000/svg">
<path d="M12.0001 7.4128L9.33343 4.74613M1.66675 15.0795L3.92299 14.8288C4.19865 14.7981 4.33648 14.7828 4.46531 14.7411C4.57961 14.7041 4.68838 14.6518 4.78867 14.5857C4.90172 14.5112 4.99978 14.4131 5.1959 14.217L14.0001 5.4128C14.7365 4.67642 14.7365 3.48251 14.0001 2.74613C13.2637 2.00975 12.0698 2.00975 11.3334 2.74613L2.52923 11.5503C2.33311 11.7464 2.23505 11.8445 2.16051 11.9575C2.09437 12.0578 2.04209 12.1666 2.00509 12.2809C1.96339 12.4097 1.94807 12.5476 1.91744 12.8232L1.66675 15.0795Z" stroke="#4E5969" stroke-width="1.2" stroke-linecap="round" stroke-linejoin="round"/>
</svg>
