<svg width="17" height="17" viewBox="0 0 17 17" fill="none" xmlns="http://www.w3.org/2000/svg">
<g clip-path="url(#clip0_15976_6059)">
<path d="M10.3088 2.25916V5.01285C10.3088 5.38622 10.3088 5.5729 10.3814 5.71551C10.4453 5.84095 10.5473 5.94294 10.6728 6.00685C10.8154 6.07952 11.0021 6.07952 11.3754 6.07952H14.1291M10.3088 12.0795H6.30876M11.6421 9.4128H6.30876M14.3088 7.40495V12.2128C14.3088 13.3329 14.3088 13.893 14.0908 14.3208C13.899 14.6971 13.5931 15.0031 13.2167 15.1948C12.7889 15.4128 12.2289 15.4128 11.1088 15.4128H6.84209C5.72198 15.4128 5.16193 15.4128 4.73411 15.1948C4.35778 15.0031 4.05182 14.6971 3.86008 14.3208C3.64209 13.893 3.64209 13.3329 3.64209 12.2128V5.27947C3.64209 4.15936 3.64209 3.59931 3.86008 3.17149C4.05182 2.79516 4.35778 2.4892 4.73411 2.29745C5.16193 2.07947 5.72198 2.07947 6.84209 2.07947H8.98327C9.47245 2.07947 9.71704 2.07947 9.94722 2.13473C10.1513 2.18372 10.3464 2.26453 10.5253 2.37419C10.7272 2.49787 10.9001 2.67082 11.246 3.01673L13.3715 5.14221C13.7174 5.48811 13.8904 5.66106 14.014 5.8629C14.1237 6.04184 14.2045 6.23693 14.2535 6.441C14.3088 6.67118 14.3088 6.91577 14.3088 7.40495Z" stroke="currentColor" stroke-width="1.2" stroke-linecap="round" stroke-linejoin="round"/>
</g>
<defs>
<clipPath id="clip0_15976_6059">
<rect width="16" height="16" fill="white" transform="translate(0.975464 0.746094)"/>
</clipPath>
</defs>
</svg>
