<svg width="17" height="17" viewBox="0 0 17 17" fill="none" xmlns="http://www.w3.org/2000/svg">
<g clip-path="url(#clip0_15976_6062)">
<path d="M9.64217 5.41276L8.89848 3.92537C8.68444 3.4973 8.57741 3.28325 8.41775 3.12687C8.27656 2.98858 8.10639 2.88341 7.91955 2.81897C7.70828 2.74609 7.46898 2.74609 6.99037 2.74609H4.44217C3.69543 2.74609 3.32207 2.74609 3.03685 2.89142C2.78597 3.01925 2.58199 3.22322 2.45416 3.47411C2.30884 3.75932 2.30884 4.13269 2.30884 4.87943V5.41276M2.30884 5.41276H12.4422C13.5623 5.41276 14.1223 5.41276 14.5502 5.63075C14.9265 5.82249 15.2324 6.12846 15.4242 6.50478C15.6422 6.9326 15.6422 7.49266 15.6422 8.61276V11.5461C15.6422 12.6662 15.6422 13.2263 15.4242 13.6541C15.2324 14.0304 14.9265 14.3364 14.5502 14.5281C14.1223 14.7461 13.5623 14.7461 12.4422 14.7461H5.50884C4.38873 14.7461 3.82868 14.7461 3.40086 14.5281C3.02453 14.3364 2.71857 14.0304 2.52682 13.6541C2.30884 13.2263 2.30884 12.6662 2.30884 11.5461V5.41276Z" stroke="#4E5969" stroke-width="1.2" stroke-linecap="round" stroke-linejoin="round"/>
</g>
<defs>
<clipPath id="clip0_15976_6062">
<rect width="16" height="16" fill="white" transform="translate(0.975464 0.746094)"/>
</clipPath>
</defs>
</svg>
