<svg width="94" height="24" viewBox="0 0 94 24" fill="none" xmlns="http://www.w3.org/2000/svg">
<path d="M84.8582 11.2452L93.3333 23.5687H88.0205L82.265 14.6957L76.7309 23.5687H71.3864L79.83 11.1219L71.8924 0H77.1736L82.4864 7.7946L87.5778 0H92.8274L84.8582 11.2452Z" fill="#3C49DD"/>
<path d="M69.9033 13.4635C69.9033 14.4699 69.7979 15.3736 69.5871 16.1746H57.9179C58.0866 17.5302 58.5399 18.5777 59.2778 19.3171C60.0156 20.0565 61.0171 20.4262 62.282 20.4262C63.9475 20.4262 65.2441 19.6252 66.1717 18.0232L69.3341 20.1181C68.7016 21.2889 67.7845 22.2337 66.5828 22.9525C65.4022 23.6509 63.9581 24 62.2504 24C60.5005 24 58.9721 23.6303 57.6649 22.8909C56.3578 22.1515 55.3459 21.104 54.6291 19.7484C53.9123 18.3929 53.5539 16.7908 53.5539 14.9423C53.5539 13.0527 53.8912 11.4096 54.5658 10.0129C55.2615 8.5957 56.2419 7.51739 57.5068 6.77798C58.7929 6.01804 60.2792 5.63806 61.9658 5.63806C63.547 5.63806 64.9384 5.95642 66.1401 6.59313C67.3418 7.22984 68.2694 8.14384 68.923 9.33511C69.5766 10.5058 69.9033 11.882 69.9033 13.4635ZM65.6341 12.8473C65.6341 11.6766 65.3179 10.7626 64.6854 10.1053C64.0529 9.42753 63.1464 9.08864 61.9658 9.08864C60.8906 9.08864 60.0262 9.40699 59.3726 10.0437C58.7191 10.6804 58.2763 11.6149 58.0444 12.8473H65.6341Z" fill="#3C49DD"/>
<path d="M46.774 23.5687H42.4099V3.97432H35.263V0H53.8894V3.97432H46.774V23.5687Z" fill="#3C49DD"/>
<path d="M25.094 24C23.4284 24 22.0475 23.5585 20.9512 22.6753C19.876 21.7715 19.3384 20.5597 19.3384 19.0398C19.3384 17.8075 19.6758 16.7189 20.3504 15.7741C21.025 14.8293 21.9948 14.1002 23.2598 13.5867C24.5247 13.0732 26.0216 12.8165 27.7504 12.8165H30.2486V12.1387C30.2486 11.235 29.9324 10.5058 29.2999 9.95128C28.6674 9.39672 27.8241 9.11944 26.77 9.11944C25.2732 9.11944 24.0715 9.75616 23.1649 11.0296L20.2239 9.02702C21.8262 6.76771 24.1136 5.63806 27.0863 5.63806C28.5409 5.63806 29.8164 5.90507 30.9127 6.43909C32.0301 6.9731 32.8945 7.74332 33.5059 8.74974C34.1384 9.73562 34.4546 10.8858 34.4546 12.2003V23.5687H30.2486V21.3813H30.0589C29.6372 22.2029 28.9731 22.8396 28.0666 23.2914C27.1811 23.7638 26.1902 24 25.094 24ZM26.264 20.5495C27.2971 20.5495 28.2142 20.2722 29.0153 19.7176C29.8375 19.1631 30.2486 18.3723 30.2486 17.3454V16.2671H28.6042C25.2942 16.2671 23.6393 17.0989 23.6393 18.7626C23.6393 19.3171 23.8712 19.7587 24.335 20.0873C24.7988 20.3954 25.4418 20.5495 26.264 20.5495Z" fill="#3C49DD"/>
<path d="M4.36408 0V19.6868H16.0332V23.5687H0V0H4.36408Z" fill="#3C49DD"/>
</svg>
