<svg width="16" height="17" viewBox="0 0 16 17" fill="none" xmlns="http://www.w3.org/2000/svg">
<g clip-path="url(#clip0_15976_6072)">
<path d="M10.6667 4.74613V4.2128C10.6667 3.46606 10.6667 3.0927 10.5213 2.80748C10.3935 2.5566 10.1895 2.35262 9.93865 2.22479C9.65344 2.07947 9.28007 2.07947 8.53333 2.07947H7.46667C6.71993 2.07947 6.34656 2.07947 6.06135 2.22479C5.81046 2.35262 5.60649 2.5566 5.47866 2.80748C5.33333 3.0927 5.33333 3.46606 5.33333 4.2128V4.74613M6.66667 8.4128V11.7461M9.33333 8.4128V11.7461M2 4.74613H14M12.6667 4.74613V12.2128C12.6667 13.3329 12.6667 13.893 12.4487 14.3208C12.2569 14.6971 11.951 15.0031 11.5746 15.1948C11.1468 15.4128 10.5868 15.4128 9.46667 15.4128H6.53333C5.41323 15.4128 4.85318 15.4128 4.42535 15.1948C4.04903 15.0031 3.74307 14.6971 3.55132 14.3208C3.33333 13.893 3.33333 13.3329 3.33333 12.2128V4.74613" stroke="#4E5969" stroke-width="1.2" stroke-linecap="round" stroke-linejoin="round"/>
</g>
<defs>
<clipPath id="clip0_15976_6072">
<rect width="16" height="16" fill="white" transform="translate(0 0.746094)"/>
</clipPath>
</defs>
</svg>
