<svg width="17" height="17" viewBox="0 0 17 17" fill="none" xmlns="http://www.w3.org/2000/svg">
<path d="M8.5041 2.27473C8.76445 2.01438 9.18656 2.01438 9.44691 2.27473L12.7802 5.60806C13.0406 5.86841 13.0406 6.29052 12.7802 6.55087C12.5199 6.81122 12.0978 6.81122 11.8374 6.55087L9.64217 4.35561L9.64217 10.7461C9.64217 11.1143 9.34369 11.4128 8.9755 11.4128C8.60731 11.4128 8.30884 11.1143 8.30884 10.7461L8.30884 4.35561L6.11358 6.55087C5.85323 6.81122 5.43112 6.81122 5.17077 6.55087C4.91042 6.29052 4.91042 5.86841 5.17077 5.60806L8.5041 2.27473Z" fill="#4E5969"/>
<path d="M2.97551 10.0795C3.3437 10.0795 3.64217 10.3779 3.64217 10.7461V11.5461C3.64217 12.1172 3.64269 12.5054 3.66721 12.8054C3.69109 13.0977 3.73437 13.2472 3.7875 13.3515C3.91533 13.6023 4.1193 13.8063 4.37018 13.9341C4.47445 13.9873 4.62392 14.0306 4.9162 14.0544C5.21626 14.0789 5.60445 14.0795 6.17551 14.0795H11.7755C12.3466 14.0795 12.7348 14.0789 13.0348 14.0544C13.3271 14.0306 13.4766 13.9873 13.5808 13.9341C13.8317 13.8063 14.0357 13.6023 14.1635 13.3515C14.2166 13.2472 14.2599 13.0977 14.2838 12.8054C14.3083 12.5054 14.3088 12.1172 14.3088 11.5461V10.7461C14.3088 10.3779 14.6073 10.0795 14.9755 10.0795C15.3437 10.0795 15.6422 10.3779 15.6422 10.7461V11.5737C15.6422 12.1103 15.6422 12.5532 15.6127 12.914C15.5821 13.2887 15.5164 13.6332 15.3515 13.9568C15.0959 14.4585 14.6879 14.8665 14.1861 15.1222C13.8626 15.287 13.5181 15.3527 13.1434 15.3833C12.7826 15.4128 12.3397 15.4128 11.803 15.4128H6.14797C5.61133 15.4128 5.16842 15.4128 4.80762 15.3833C4.43289 15.3527 4.08842 15.287 3.76486 15.1222C3.2631 14.8665 2.85515 14.4585 2.59949 13.9568C2.43463 13.6332 2.36892 13.2887 2.3383 12.914C2.30882 12.5532 2.30883 12.1103 2.30884 11.5737V10.7461C2.30884 10.3779 2.60732 10.0795 2.97551 10.0795Z" fill="#4E5969"/>
</svg>
